<svg width="321" height="87" viewBox="0 0 321 87" fill="none" xmlns="http://www.w3.org/2000/svg">
<path d="M5.17254 86.2897L22.8854 62.9123L43.5572 62.9164L65.0644 20.3233L85.7381 10.9768L107.238 4.7473L128.73 36.9594L149.404 25.5349L170.908 2.68207L191.574 32.8161L213.078 2.69047L234.568 47.3701L255.24 48.4132L276.74 39.0668L297.406 68.1618L318.903 79.5947" stroke="#7951F9" stroke-width="2"/>
<path d="M1.38336 79.5314L22.886 59.7955L43.5554 72.2671L65.0582 51.4922L85.7344 29.6781L107.23 46.3058L128.737 2.67369L149.406 18.2622L170.897 56.7081L191.569 54.6343L213.07 44.2489L234.569 44.2532L255.237 59.8417L276.733 77.5084L297.404 79.5904L318.903 79.5947" stroke="#FB4C5C" stroke-width="2"/>
<g filter="url(#filter0_d_2_331)">
<path d="M189.187 11.8263C189.188 9.61715 190.979 7.82665 193.188 7.82709L231.188 7.83466C233.397 7.8351 235.188 9.62632 235.187 11.8355L235.184 30.2355C235.183 32.4446 233.392 34.2351 231.183 34.2347L218.754 34.2322L212.182 40.8309L205.612 34.2296L193.183 34.2271C190.974 34.2267 189.183 32.4354 189.184 30.2263L189.187 11.8263Z" fill="#F7F4FD"/>
<path d="M205.966 33.8769L205.819 33.7296L205.612 33.7296L193.183 33.7271C191.25 33.7267 189.683 32.1594 189.684 30.2264L189.687 11.8264C189.688 9.89339 191.255 8.32671 193.188 8.32709L231.188 8.33466C233.121 8.33505 234.688 9.90236 234.687 11.8354L234.684 30.2354C234.683 32.1684 233.116 33.735 231.183 33.7347L218.755 33.7322L218.547 33.7321L218.4 33.8793L212.182 40.1222L205.966 33.8769Z" stroke="#E8E0FF"/>
</g>
<path d="M208.101 23.61C208.101 24.226 207.865 24.7499 207.393 25.1819C206.921 25.6058 206.229 25.8416 205.317 25.8894L205.316 27.2694L204.716 27.2693L204.717 25.9013C204.133 25.8692 203.581 25.7571 203.061 25.565C202.549 25.3649 202.145 25.1128 201.849 24.8087L202.197 24.1248C202.477 24.3969 202.841 24.6249 203.289 24.809C203.745 24.9931 204.221 25.1012 204.717 25.1333L204.717 21.9773C204.165 21.8412 203.705 21.6971 203.338 21.545C202.97 21.385 202.662 21.1569 202.414 20.8609C202.174 20.5568 202.054 20.1568 202.054 19.6608C202.054 19.0448 202.278 18.5288 202.726 18.1129C203.174 17.689 203.838 17.4411 204.718 17.3693L204.719 15.9893L205.319 15.9894L205.318 17.3574C205.774 17.3735 206.214 17.4496 206.638 17.5857C207.07 17.7138 207.442 17.8859 207.754 18.1019L207.454 18.8099C207.126 18.6018 206.778 18.4377 206.41 18.3177C206.042 18.1976 205.678 18.1295 205.318 18.1134L205.318 21.2934C205.91 21.4376 206.394 21.5857 206.769 21.7377C207.145 21.8818 207.461 22.1059 207.717 22.4099C207.973 22.714 208.101 23.114 208.101 23.61ZM202.93 19.637C202.93 20.053 203.082 20.369 203.386 20.5851C203.698 20.8011 204.142 20.9852 204.718 21.1373L204.718 18.1373C204.126 18.1852 203.678 18.3491 203.374 18.629C203.078 18.901 202.93 19.237 202.93 19.637ZM205.317 25.1334C205.949 25.0856 206.425 24.9297 206.745 24.6657C207.065 24.4018 207.225 24.0658 207.225 23.6578C207.225 23.2258 207.061 22.9018 206.733 22.6857C206.405 22.4697 205.933 22.2856 205.317 22.1334L205.317 25.1334ZM215.428 25.0635L215.427 25.8315L209.535 25.8303L209.536 25.2183L213.028 21.799C213.468 21.3671 213.764 20.9951 213.916 20.6831C214.077 20.3632 214.157 20.0432 214.157 19.7232C214.157 19.2272 213.985 18.8432 213.641 18.5711C213.305 18.291 212.821 18.1509 212.189 18.1508C211.205 18.1506 210.441 18.4625 209.897 19.0863L209.285 18.5582C209.613 18.1743 210.029 17.8784 210.533 17.6705C211.045 17.4626 211.621 17.3587 212.261 17.3588C213.117 17.359 213.793 17.5631 214.289 17.9712C214.793 18.3713 215.045 18.9234 215.045 19.6274C215.045 20.0594 214.949 20.4754 214.756 20.8753C214.564 21.2753 214.2 21.7352 213.664 22.2551L210.808 25.0625L215.428 25.0635ZM219.121 20.8762C220.337 20.8764 221.221 21.0966 221.773 21.5367C222.333 21.9688 222.612 22.5769 222.612 23.3609C222.612 23.8489 222.496 24.2849 222.264 24.6688C222.04 25.0528 221.7 25.3567 221.244 25.5806C220.788 25.7965 220.228 25.9044 219.564 25.9043C218.964 25.9042 218.392 25.808 217.848 25.6159C217.312 25.4158 216.88 25.1517 216.552 24.8237L216.972 24.1398C217.252 24.4278 217.62 24.6639 218.076 24.848C218.532 25.0241 219.024 25.1122 219.552 25.1123C220.248 25.1124 220.784 24.9565 221.16 24.6446C221.544 24.3327 221.736 23.9167 221.736 23.3967C221.736 22.8207 221.52 22.3847 221.089 22.0886C220.665 21.7925 219.945 21.6444 218.929 21.6441L217.141 21.6438L217.573 17.4319L222.169 17.4328L222.169 18.2008L218.329 18.2L218.041 20.876L219.121 20.8762Z" fill="#232D42"/>
<defs>
<filter id="filter0_d_2_331" x="179.184" y="3.82715" width="66.0037" height="53.0038" filterUnits="userSpaceOnUse" color-interpolation-filters="sRGB">
<feFlood flood-opacity="0" result="BackgroundImageFix"/>
<feColorMatrix in="SourceAlpha" type="matrix" values="0 0 0 0 0 0 0 0 0 0 0 0 0 0 0 0 0 0 127 0" result="hardAlpha"/>
<feOffset dy="6"/>
<feGaussianBlur stdDeviation="5"/>
<feColorMatrix type="matrix" values="0 0 0 0 0.863571 0 0 0 0 0.82875 0 0 0 0 0.975 0 0 0 0.4 0"/>
<feBlend mode="normal" in2="BackgroundImageFix" result="effect1_dropShadow_2_331"/>
<feBlend mode="normal" in="SourceGraphic" in2="effect1_dropShadow_2_331" result="shape"/>
</filter>
</defs>
</svg>
