<svg width="15" height="13" viewBox="0 0 15 13" fill="none" xmlns="http://www.w3.org/2000/svg">
<path fill-rule="evenodd" clip-rule="evenodd" d="M8.06919 2.52013C7.66633 3.1592 7.53034 3.90888 7.53034 4.26471C7.53034 4.49915 7.41327 4.71832 7.21783 4.84975C7.0224 4.98118 6.77405 5.00776 6.55492 4.92069C6.4116 4.86375 6.25193 4.80586 6.07928 4.74326C5.63199 4.58109 5.09761 4.38734 4.53495 4.09671C3.96352 3.80156 3.34085 3.40069 2.63555 2.80548C2.64431 3.07118 2.70339 3.31453 2.80268 3.54006C3.03447 4.06653 3.52595 4.58705 4.3398 5.07181C4.56247 5.20444 4.69469 5.44705 4.68476 5.70476C4.67483 5.96247 4.52432 6.19433 4.2921 6.30966L4.29132 6.31005L4.29048 6.31047L4.28858 6.3114L4.28398 6.31365L4.27156 6.31959C4.26187 6.32417 4.24936 6.32997 4.23412 6.33681C4.20363 6.35049 4.16215 6.36834 4.11037 6.38892C4.00691 6.43002 3.86168 6.48225 3.68042 6.53369C3.4898 6.58779 3.2577 6.64148 2.99123 6.68016C3.14328 7.21648 3.48217 7.55125 3.84733 7.80412C4.06207 7.95282 4.26981 8.06227 4.4786 8.17227C4.53054 8.19963 4.58253 8.22703 4.63472 8.25507C4.74875 8.31634 4.89865 8.39915 5.02262 8.49766C5.1183 8.57368 5.39654 8.80971 5.39654 9.2103C5.39654 9.46643 5.2796 9.66604 5.20557 9.77272C5.11897 9.89752 5.00966 10.0102 4.89521 10.1086C4.66433 10.3073 4.35438 10.4982 3.98692 10.6546C3.5638 10.8346 3.04726 10.9762 2.45678 11.0272C2.50515 11.053 2.55656 11.0776 2.6111 11.1011C3.12881 11.3239 3.88593 11.4151 4.79801 11.3327C6.60635 11.1695 8.75163 10.3498 10.2261 9.06472C11.3565 7.76789 11.8352 6.48476 12.0344 5.53379C12.1352 5.05274 12.1646 4.65567 12.1694 4.38463C12.1719 4.24924 12.1682 4.14577 12.1643 4.07958C12.1623 4.0465 12.1603 4.0228 12.1591 4.00914L12.1578 3.9963C12.1369 3.82368 12.1807 3.64904 12.2811 3.50651L12.158 3.99787L12.1581 3.99909L12.2811 3.50651L13.5894 4.1056C13.5786 4.12203 13.5992 4.09089 13.5894 4.1056C13.5894 4.1056 13.5939 4.292 13.5918 4.40973C13.5855 4.75689 13.5484 5.24296 13.4271 5.82169C13.184 6.98199 12.6034 8.51086 11.2674 10.0286C11.2478 10.0509 11.2267 10.072 11.2044 10.0917C9.47716 11.6159 7.01715 12.5512 4.92679 12.74C3.88266 12.8342 2.86149 12.7488 2.04552 12.3976C1.20059 12.0339 0.548906 11.3642 0.422247 10.3577C0.39439 10.1363 0.473426 9.9149 0.635442 9.76041C0.797457 9.60591 1.02342 9.53649 1.24495 9.57317C2.17027 9.72636 2.92212 9.57044 3.42673 9.3557C3.47704 9.33429 3.5688 9.29065 3.5688 9.29065C3.5688 9.29065 3.21713 9.09022 3.0338 8.96327C2.28326 8.44352 1.48458 7.56506 1.48458 6.03099C1.48458 5.6408 1.80303 5.32448 2.19585 5.32448C2.24757 5.32448 2.29829 5.32351 2.34796 5.32167C1.98561 4.95742 1.69627 4.55355 1.49933 4.10623C1.10007 3.19935 1.12094 2.20563 1.53546 1.17626C1.62425 0.955761 1.81863 0.794323 2.05284 0.746572C2.28704 0.698821 2.52973 0.771146 2.69879 0.939076C3.7211 1.95455 4.5228 2.49779 5.19124 2.84305C5.57525 3.0414 5.90455 3.17211 6.23392 3.29346C6.34808 2.81198 6.5476 2.27138 6.86352 1.77022C7.44705 0.844535 8.45393 0.0256348 10.0198 0.0256348C10.9911 0.0256348 11.6161 0.501103 12.0096 0.826971C12.0571 0.86624 12.0982 0.900588 12.1343 0.930765C12.2253 1.00675 12.2846 1.05628 12.333 1.09131C12.6563 0.939078 12.9483 0.832415 13.2079 0.783274C13.4839 0.731036 13.8816 0.715019 14.209 0.975451C14.5536 1.24948 14.5935 1.64365 14.5817 1.87711C14.5693 2.12143 14.496 2.3661 14.419 2.56997C14.2618 2.98641 14.0115 3.42907 13.8164 3.74826C13.7309 3.88806 13.652 4.01068 13.5894 4.1056C13.6019 4.25983 13.5881 4.09104 13.5894 4.1056L12.2811 3.50651L12.2819 3.50535L12.286 3.4995L12.3037 3.47388C12.3195 3.45085 12.3429 3.41638 12.3722 3.37252C12.4308 3.28457 12.5118 3.15998 12.6005 3.01488C12.7265 2.80869 12.8581 2.57721 12.9635 2.35825C12.9207 2.37816 12.8754 2.39996 12.8274 2.4238C12.8177 2.42859 12.808 2.43316 12.7982 2.43751C12.363 2.62968 11.9709 2.51704 11.6956 2.3622C11.5056 2.25529 11.3115 2.09154 11.1715 1.97334C11.1452 1.95119 11.1209 1.93063 11.0988 1.91235C10.7657 1.63658 10.471 1.43866 10.0198 1.43866C9.0441 1.43866 8.45063 1.91503 8.06919 2.52013Z" fill="black"/>
</svg>
