<svg width="16" height="15" viewBox="0 0 16 15" fill="none" xmlns="http://www.w3.org/2000/svg">
<path d="M8.70996 14.7842C9.46582 14.7842 10.2129 14.7051 10.8018 14.5645V12.8594C10.3711 12.9736 9.6416 13.0527 8.95605 13.0527C5.24707 13.0527 2.95312 10.9346 2.95312 7.52441V7.50684C2.95312 4.12305 5.21191 1.8291 8.56934 1.8291C11.7334 1.8291 13.7197 3.82422 13.7197 7.00586V7.02344C13.7197 8.48242 13.2979 9.39648 12.6211 9.39648C12.1904 9.39648 11.9355 9.02734 11.9355 8.39453V4.14941H9.70312V5.17773H9.52734C9.17578 4.37793 8.4375 3.92969 7.47949 3.92969C5.76562 3.92969 4.62305 5.35352 4.62305 7.48047V7.49805C4.62305 9.71289 5.82715 11.1807 7.65527 11.1807C8.65723 11.1807 9.31641 10.75 9.66797 9.87109H9.84375L9.86133 9.92383C10.125 10.7061 10.9424 11.1543 12.1025 11.1543C14.335 11.1543 15.7061 9.4668 15.7061 6.74219V6.72461C15.7061 2.7959 12.832 0.141602 8.56934 0.141602C4.07812 0.141602 0.966797 3.14746 0.966797 7.47168V7.48926C0.966797 11.8311 4.0957 14.7842 8.70996 14.7842ZM8.30566 9.18555C7.61133 9.18555 7.20703 8.5791 7.20703 7.56836V7.55078C7.20703 6.53125 7.62012 5.91602 8.30566 5.91602C8.98242 5.91602 9.39551 6.53125 9.39551 7.55078V7.56836C9.39551 8.5791 8.99121 9.18555 8.30566 9.18555Z" fill="black"/>
</svg>
