<svg width="17" height="18" viewBox="0 0 17 18" fill="none" xmlns="http://www.w3.org/2000/svg">
<path fill-rule="evenodd" clip-rule="evenodd" d="M1.41667 8.9339C1.41667 12.9616 4.58798 16.2267 8.5 16.2267C12.412 16.2267 15.5833 12.9616 15.5833 8.9339C15.5833 4.90621 12.412 1.64111 8.5 1.64111C4.58798 1.64111 1.41667 4.90621 1.41667 8.9339ZM2.83333 8.9339C2.83333 5.71174 5.37039 3.09967 8.5 3.09967C11.6296 3.09967 14.1667 5.71174 14.1667 8.9339C14.1667 12.1561 11.6296 14.7681 8.5 14.7681C5.37039 14.7681 2.83333 12.1561 2.83333 8.9339ZM8.88788 9.71131C8.84821 9.97677 8.63996 10.2116 8.35238 10.2116H8.27305C7.98546 10.2116 7.77721 9.98698 7.73755 9.71131L7.63838 9.01704C7.5888 8.68011 7.77721 8.44528 8.09455 8.40444C8.9573 8.29213 9.35396 8.01647 9.35396 7.51618V7.49576C9.35396 7.03632 9.0168 6.77086 8.44163 6.77086C8.01521 6.77086 7.6483 6.90359 7.2913 7.17926C7.1723 7.27114 7.01363 7.34261 6.84505 7.34261C6.46821 7.34261 6.15088 7.0159 6.15088 6.62792C6.15088 6.43393 6.23021 6.22973 6.40871 6.07659C6.9343 5.62735 7.59871 5.34147 8.47138 5.34147C9.89938 5.34147 10.8712 6.09701 10.8712 7.45492V7.47534C10.8712 8.772 9.99855 9.30291 8.91763 9.52753L8.88788 9.71131ZM7.4103 11.7737V11.7533C7.4103 11.2632 7.77721 10.8854 8.27305 10.8854C8.76888 10.8854 9.1358 11.2632 9.1358 11.7533V11.7737C9.1358 12.2638 8.76888 12.6416 8.27305 12.6416C7.77721 12.6416 7.4103 12.2638 7.4103 11.7737Z" fill="black"/>
</svg>
