<svg width="516" height="158" viewBox="0 0 516 158" fill="none" xmlns="http://www.w3.org/2000/svg">
<path d="M6.40444 20.0556C5.6067 19.8322 4.77892 20.2978 4.55555 21.0956L0.91555 34.0956C0.692181 34.8933 1.15781 35.7211 1.95555 35.9445C2.7533 36.1678 3.58107 35.7022 3.80444 34.9045L7.04 23.3489L18.5956 26.5844C19.3933 26.8078 20.2211 26.3422 20.4445 25.5444C20.6678 24.7467 20.2022 23.9189 19.4045 23.6956L6.40444 20.0556ZM362.5 98.5L363.501 99.6173L362.5 98.5ZM513.711 7.47199C514.524 7.6314 515.313 7.10159 515.472 6.28865C515.631 5.4757 515.102 4.68746 514.289 4.52805L513.711 7.47199ZM8.08208 27.2918C8.56791 27.9628 9.50572 28.113 10.1767 27.6271C10.8477 27.1413 10.9979 26.2035 10.512 25.5325L8.08208 27.2918ZM15.2386 31.7675C14.7264 31.1164 13.7833 31.0038 13.1322 31.516C12.4811 32.0282 12.3685 32.9712 12.8806 33.6223L15.2386 31.7675ZM20.5675 42.9929C21.1046 43.6236 22.0513 43.6994 22.682 43.1622C23.3127 42.6251 23.3885 41.6784 22.8514 41.0477L20.5675 42.9929ZM28.0715 47.043C27.5209 46.424 26.5727 46.3686 25.9538 46.9192C25.3348 47.4697 25.2793 48.4179 25.8299 49.0369L28.0715 47.043ZM33.8919 57.8318C34.4605 58.4342 35.4099 58.4615 36.0123 57.8928C36.6147 57.3241 36.642 56.3748 36.0733 55.7724L33.8919 57.8318ZM41.625 61.54C41.0447 60.9487 40.095 60.9397 39.5038 61.52C38.9125 62.1002 38.9035 63.0499 39.4838 63.6412L41.625 61.54ZM47.989 72.0649C48.5858 72.6394 49.5354 72.6213 50.1099 72.0245C50.6844 71.4276 50.6663 70.478 50.0695 69.9035L47.989 72.0649ZM55.8142 75.3288C55.2065 74.7658 54.2575 74.802 53.6945 75.4097C53.1314 76.0174 53.1677 76.9665 53.7754 77.5295L55.8142 75.3288ZM62.6947 85.554C63.3186 86.099 64.2662 86.0349 64.8111 85.4109C65.3561 84.787 65.292 83.8394 64.6681 83.2944L62.6947 85.554ZM70.6954 88.453C70.0606 87.9208 69.1145 88.0039 68.5822 88.6386C68.0499 89.2734 68.133 90.2195 68.7678 90.7518L70.6954 88.453ZM78.0881 98.3241C78.7392 98.8363 79.6823 98.7237 80.1945 98.0726C80.7066 97.4215 80.594 96.4784 79.9429 95.9662L78.0881 98.3241ZM86.2487 100.817C85.5866 100.319 84.6463 100.453 84.1483 101.115C83.6504 101.777 83.7834 102.717 84.4455 103.215L86.2487 100.817ZM94.1479 110.26C94.8265 110.735 95.7618 110.57 96.237 109.892C96.7122 109.213 96.5473 108.278 95.8688 107.802L94.1479 110.26ZM102.415 112.273C101.726 111.814 100.795 112.001 100.336 112.691C99.8766 113.38 100.064 114.311 100.753 114.77L102.415 112.273ZM110.879 121.241C111.585 121.674 112.509 121.453 112.942 120.746C113.374 120.04 113.153 119.116 112.446 118.683L110.879 121.241ZM119.259 122.737C118.542 122.323 117.624 122.569 117.21 123.286C116.796 124.004 117.042 124.921 117.76 125.335L119.259 122.737ZM128.282 131.123C129.016 131.507 129.923 131.223 130.307 130.489C130.691 129.755 130.407 128.848 129.673 128.465L128.282 131.123ZM136.753 132.037C136.008 131.675 135.111 131.985 134.748 132.73C134.386 133.475 134.697 134.373 135.442 134.735L136.753 132.037ZM146.377 139.744C147.138 140.071 148.02 139.719 148.347 138.958C148.674 138.197 148.323 137.315 147.561 136.987L146.377 139.744ZM154.874 139.991C154.102 139.689 153.232 140.069 152.93 140.841C152.628 141.612 153.008 142.482 153.779 142.785L154.874 139.991ZM165.088 146.883C165.873 147.144 166.723 146.719 166.985 145.933C167.246 145.147 166.821 144.298 166.035 144.036L165.088 146.883ZM173.594 146.403C172.799 146.17 171.966 146.625 171.733 147.42C171.5 148.215 171.956 149.049 172.751 149.282L173.594 146.403ZM184.384 152.335C185.191 152.522 185.997 152.02 186.184 151.213C186.371 150.406 185.868 149.6 185.061 149.413L184.384 152.335ZM192.795 151.044C191.981 150.89 191.196 151.424 191.041 152.238C190.886 153.052 191.421 153.837 192.235 153.991L192.795 151.044ZM204.137 155.873C204.959 155.977 205.709 155.395 205.813 154.573C205.916 153.751 205.334 153 204.512 152.897L204.137 155.873ZM212.356 153.715C211.53 153.647 210.805 154.261 210.737 155.086C210.669 155.912 211.283 156.637 212.109 156.705L212.356 153.715ZM224.135 157.298C224.963 157.311 225.645 156.65 225.659 155.822C225.672 154.993 225.011 154.311 224.183 154.298L224.135 157.298ZM232.104 154.245C231.276 154.269 230.625 154.96 230.649 155.788C230.674 156.616 231.365 157.268 232.193 157.244L232.104 154.245ZM244.191 156.48C245.016 156.399 245.618 155.665 245.537 154.84C245.456 154.016 244.723 153.413 243.898 153.494L244.191 156.48ZM251.741 152.542C250.921 152.661 250.353 153.421 250.471 154.241C250.59 155.061 251.351 155.63 252.171 155.511L251.741 152.542ZM264.058 153.372C264.868 153.197 265.383 152.399 265.209 151.589C265.034 150.779 264.236 150.264 263.426 150.439L264.058 153.372ZM271.05 148.617C270.248 148.827 269.769 149.648 269.98 150.449C270.19 151.25 271.01 151.729 271.812 151.519L271.05 148.617ZM283.385 148.065C284.17 147.803 284.594 146.953 284.331 146.167C284.068 145.381 283.219 144.958 282.433 145.22L283.385 148.065ZM289.833 142.569C289.059 142.865 288.671 143.732 288.967 144.506C289.263 145.28 290.13 145.667 290.904 145.372L289.833 142.569ZM302.012 140.727C302.766 140.384 303.1 139.495 302.757 138.741C302.414 137.987 301.525 137.653 300.771 137.996L302.012 140.727ZM307.908 134.582C307.167 134.954 306.869 135.856 307.241 136.596C307.613 137.336 308.514 137.635 309.255 137.263L307.908 134.582ZM319.82 131.575C320.539 131.163 320.787 130.246 320.374 129.527C319.961 128.809 319.045 128.561 318.326 128.974L319.82 131.575ZM325.148 124.892C324.444 125.33 324.229 126.255 324.667 126.958C325.105 127.661 326.03 127.876 326.733 127.439L325.148 124.892ZM336.73 120.86C337.41 120.388 337.579 119.453 337.107 118.772C336.635 118.092 335.7 117.923 335.02 118.395L336.73 120.86ZM341.488 113.752C340.823 114.246 340.684 115.185 341.177 115.851C341.671 116.516 342.61 116.655 343.275 116.162L341.488 113.752ZM352.721 108.823C353.364 108.301 353.461 107.356 352.939 106.713C352.416 106.07 351.472 105.972 350.829 106.495L352.721 108.823ZM356.923 101.399C356.295 101.94 356.223 102.887 356.763 103.515C357.304 104.143 358.251 104.214 358.879 103.674L356.923 101.399ZM367.775 95.607C368.366 95.0267 368.375 94.077 367.794 93.4858C367.214 92.8946 366.264 92.8858 365.673 93.4661L367.775 95.607ZM370.974 87.9607C370.416 88.5727 370.46 89.5215 371.072 90.0798C371.684 90.6382 372.632 90.5947 373.191 89.9827L370.974 87.9607ZM380.753 81.082C381.269 80.4338 381.162 79.4902 380.513 78.9743C379.865 78.4584 378.922 78.5656 378.406 79.2138L380.753 81.082ZM383.077 73.1288C382.583 73.7938 382.722 74.7334 383.387 75.2274C384.052 75.7215 384.992 75.5829 385.486 74.9179L383.077 73.1288ZM392.257 65.4661C392.73 64.7863 392.563 63.8514 391.883 63.3779C391.203 62.9045 390.269 63.0718 389.795 63.7516L392.257 65.4661ZM394.173 57.4081C393.704 58.091 393.878 59.0248 394.561 59.4938C395.243 59.9628 396.177 59.7894 396.646 59.1065L394.173 57.4081ZM403.233 49.6009C403.71 48.9242 403.549 47.9882 402.872 47.5104C402.196 47.0326 401.26 47.1938 400.782 47.8705L403.233 49.6009ZM405.331 41.582C404.836 42.2465 404.974 43.1862 405.638 43.681C406.303 44.1758 407.242 44.0382 407.737 43.3737L405.331 41.582ZM414.865 34.375C415.402 33.7443 415.326 32.7976 414.695 32.2604C414.064 31.7233 413.118 31.7991 412.581 32.4298L414.865 34.375ZM417.824 26.6375C417.249 27.233 417.265 28.1826 417.86 28.7585C418.456 29.3344 419.405 29.3185 419.981 28.723L417.824 26.6375ZM428.364 21.0184C429.009 20.4982 429.11 19.5539 428.59 18.9091C428.07 18.2644 427.125 18.1634 426.481 18.6836L428.364 21.0184ZM432.834 14.0432C432.142 14.498 431.949 15.428 432.404 16.1204C432.859 16.8128 433.789 17.0054 434.481 16.5506L432.834 14.0432ZM444.409 11.0887C445.164 10.7479 445.5 9.85951 445.159 9.10442C444.818 8.34932 443.93 8.01345 443.175 8.35422L444.409 11.0887ZM450.49 5.49987C449.704 5.7612 449.278 6.61034 449.54 7.39646C449.801 8.18259 450.65 8.60803 451.436 8.3467L450.49 5.49987ZM462.44 5.55023C463.255 5.40161 463.795 4.62045 463.647 3.80546C463.498 2.99047 462.717 2.45028 461.902 2.59891L462.44 5.55023ZM469.658 1.51339C468.834 1.59568 468.232 2.33063 468.314 3.15496C468.397 3.9793 469.132 4.58084 469.956 4.49855L469.658 1.51339ZM481.385 3.96598C482.213 3.96809 482.886 3.29823 482.888 2.4698C482.89 1.64138 482.221 0.9681 481.392 0.965992L481.385 3.96598ZM489.191 1.21067C488.364 1.162 487.654 1.79296 487.606 2.61996C487.557 3.44696 488.188 4.15682 489.015 4.20549L489.191 1.21067ZM500.4 5.29029C501.222 5.39653 501.974 4.81663 502.08 3.99505C502.187 3.17346 501.607 2.42131 500.785 2.31506L500.4 5.29029ZM508.477 3.46587C507.66 3.32776 506.886 3.87798 506.748 4.69481C506.61 5.51165 507.16 6.28578 507.977 6.42389L508.477 3.46587ZM4.69264 22.2354C5.27341 23.2679 6.42543 25.0037 8.08208 27.2918L10.512 25.5325C8.86767 23.2614 7.79986 21.6402 7.30736 20.7646L4.69264 22.2354ZM12.8806 33.6223C15.0539 36.3851 17.6236 39.5364 20.5675 42.9929L22.8514 41.0477C19.932 37.6201 17.3871 34.4989 15.2386 31.7675L12.8806 33.6223ZM25.8299 49.0369C28.3203 51.8367 31.0106 54.7797 33.8919 57.8318L36.0733 55.7724C33.2129 52.7424 30.5426 49.8213 28.0715 47.043L25.8299 49.0369ZM39.4838 63.6412C42.1816 66.3905 45.0187 69.2057 47.989 72.0649L50.0695 69.9035C47.1204 67.0648 44.3036 64.2696 41.625 61.54L39.4838 63.6412ZM53.7754 77.5295C56.6416 80.1849 59.6162 82.8654 62.6947 85.554L64.6681 83.2944C61.6125 80.6259 58.6597 77.965 55.8142 75.3288L53.7754 77.5295ZM68.7678 90.7518C71.7864 93.283 74.8944 95.8118 78.0881 98.3241L79.9429 95.9662C76.7747 93.474 73.6909 90.9649 70.6954 88.453L68.7678 90.7518ZM84.4455 103.215C87.6045 105.591 90.8397 107.943 94.1479 110.26L95.8688 107.802C92.5894 105.506 89.3816 103.174 86.2487 100.817L84.4455 103.215ZM100.753 114.77C104.062 116.973 107.438 119.133 110.879 121.241L112.446 118.683C109.039 116.596 105.694 114.455 102.415 112.273L100.753 114.77ZM117.76 125.335C121.208 127.326 124.717 129.258 128.282 131.123L129.673 128.465C126.145 126.62 122.673 124.707 119.259 122.737L117.76 125.335ZM135.442 134.735C139.034 136.481 142.68 138.154 146.377 139.744L147.561 136.987C143.909 135.417 140.305 133.764 136.753 132.037L135.442 134.735ZM153.779 142.785C157.501 144.242 161.272 145.612 165.088 146.883L166.035 144.036C162.27 142.782 158.549 141.431 154.874 139.991L153.779 142.785ZM172.751 149.282C176.586 150.406 180.465 151.427 184.384 152.335L185.061 149.413C181.2 148.518 177.376 147.511 173.594 146.403L172.751 149.282ZM192.235 153.991C196.165 154.738 200.133 155.369 204.137 155.873L204.512 152.897C200.572 152.4 196.665 151.78 192.795 151.044L192.235 153.991ZM212.109 156.705C216.086 157.033 220.095 157.233 224.135 157.298L224.183 154.298C220.211 154.235 216.268 154.038 212.356 153.715L212.109 156.705ZM232.193 157.244C236.166 157.127 240.166 156.875 244.191 156.48L243.898 153.494C239.942 153.882 236.01 154.13 232.104 154.245L232.193 157.244ZM252.171 155.511C256.112 154.941 260.075 154.23 264.058 153.372L263.426 150.439C259.511 151.283 255.615 151.981 251.741 152.542L252.171 155.511ZM271.812 151.519C275.653 150.51 279.512 149.361 283.385 148.065L282.433 145.22C278.622 146.495 274.827 147.625 271.05 148.617L271.812 151.519ZM290.904 145.372C294.595 143.961 298.298 142.414 302.012 140.727L300.771 137.996C297.112 139.658 293.466 141.181 289.833 142.569L290.904 145.372ZM309.255 137.263C312.768 135.497 316.291 133.603 319.82 131.575L318.326 128.974C314.844 130.974 311.371 132.842 307.908 134.582L309.255 137.263ZM326.733 127.439C330.06 125.367 333.393 123.176 336.73 120.86L335.02 118.395C331.723 120.683 328.432 122.847 325.148 124.892L326.733 127.439ZM343.275 116.162C346.421 113.829 349.569 111.383 352.721 108.823L350.829 106.495C347.711 109.028 344.597 111.446 341.488 113.752L343.275 116.162ZM358.879 103.674C360.419 102.35 361.96 100.998 363.501 99.6173L361.499 97.3828C359.973 98.7499 358.448 100.089 356.923 101.399L358.879 103.674ZM363.501 99.6173C364.968 98.3033 366.391 96.9655 367.775 95.607L365.673 93.4661C364.32 94.794 362.93 96.1006 361.499 97.3828L363.501 99.6173ZM373.191 89.9827C375.844 87.0744 378.353 84.0976 380.753 81.082L378.406 79.2138C376.041 82.1852 373.576 85.1097 370.974 87.9607L373.191 89.9827ZM385.486 74.9179C387.818 71.778 390.063 68.6161 392.257 65.4661L389.795 63.7516C387.611 66.8875 385.385 70.0224 383.077 73.1288L385.486 74.9179ZM396.646 59.1065C398.854 55.892 401.033 52.7156 403.233 49.6009L400.782 47.8705C398.569 51.0042 396.378 54.1977 394.173 57.4081L396.646 59.1065ZM407.737 43.3737C410.051 40.2666 412.411 37.2559 414.865 34.375L412.581 32.4298C410.074 35.3724 407.673 38.4365 405.331 41.582L407.737 43.3737ZM419.981 28.723C422.632 25.9822 425.41 23.4022 428.364 21.0184L426.481 18.6836C423.418 21.1545 420.549 23.82 417.824 26.6375L419.981 28.723ZM434.481 16.5506C437.578 14.5161 440.873 12.6844 444.409 11.0887L443.175 8.35422C439.49 10.0172 436.058 11.9257 432.834 14.0432L434.481 16.5506ZM451.436 8.3467C454.875 7.20349 458.532 6.26288 462.44 5.55023L461.902 2.59891C457.86 3.336 454.066 4.31095 450.49 5.49987L451.436 8.3467ZM469.956 4.49855C473.561 4.13867 477.364 3.95575 481.385 3.96598L481.392 0.965992C477.276 0.955519 473.371 1.14276 469.658 1.51339L469.956 4.49855ZM489.015 4.20549C492.642 4.41897 496.434 4.77734 500.4 5.29029L500.785 2.31506C496.754 1.79374 492.893 1.42851 489.191 1.21067L489.015 4.20549ZM507.977 6.42389C509.852 6.74083 511.763 7.08991 513.711 7.47199L514.289 4.52805C512.315 4.14109 510.378 3.7873 508.477 3.46587L507.977 6.42389Z" fill="#E5E5E5"/>
</svg>
