<svg width="92" height="123" viewBox="0 0 92 123" fill="none" xmlns="http://www.w3.org/2000/svg">
<path d="M16.1539 1.3432C15.9489 0.540524 15.1321 0.055972 14.3294 0.260922L1.24907 3.60077C0.446394 3.80572 -0.0381574 4.62257 0.166793 5.42524C0.371743 6.22791 1.18858 6.71247 1.99126 6.50752L13.6182 3.53876L16.587 15.1657C16.7919 15.9684 17.6088 16.453 18.4115 16.248C19.2141 16.0431 19.6987 15.2262 19.4937 14.4235L16.1539 1.3432ZM45.9776 98.0974L45.5308 99.5293L45.9776 98.0974ZM88.3373 121.691C88.6082 122.474 89.4625 122.889 90.2454 122.618C91.0283 122.347 91.4433 121.493 91.1723 120.71L88.3373 121.691ZM11.0065 6.50606C10.7157 7.28174 11.1087 8.14636 11.8844 8.43723C12.6601 8.7281 13.5247 8.33508 13.8155 7.55939L11.0065 6.50606ZM11.3968 14.8379C11.6304 14.0431 11.1754 13.2094 10.3806 12.9759C9.58577 12.7423 8.75209 13.1973 8.51851 13.9921L11.3968 14.8379ZM5.75724 25.4937C5.6053 26.3081 6.14231 27.0914 6.95668 27.2434C7.77106 27.3953 8.55441 26.8583 8.70635 26.0439L5.75724 25.4937ZM7.57717 33.6184C7.66819 32.795 7.07447 32.0537 6.25106 31.9627C5.42765 31.8717 4.68635 32.4654 4.59533 33.2888L7.57717 33.6184ZM4.04434 45.1296C4.06244 45.9578 4.74852 46.6145 5.57675 46.5964C6.40498 46.5783 7.06172 45.8923 7.04362 45.064L4.04434 45.1296ZM7.60379 52.6558C7.49776 51.8342 6.74577 51.2541 5.92415 51.3601C5.10254 51.4661 4.52244 52.2181 4.62846 53.0397L7.60379 52.6558ZM7.2533 64.682C7.51547 65.4679 8.36506 65.8924 9.15091 65.6302C9.93676 65.3681 10.3613 64.5185 10.0991 63.7326L7.2533 64.682ZM13.009 70.6892C12.6317 69.9517 11.7279 69.6597 10.9904 70.037C10.2529 70.4144 9.96095 71.3181 10.3383 72.0556L13.009 70.6892ZM17.0447 81.9876C17.5885 82.6126 18.536 82.6784 19.1609 82.1346C19.7859 81.5908 19.8517 80.6434 19.3079 80.0184L17.0447 81.9876ZM24.6834 85.2827C24.0482 84.7509 23.1022 84.8347 22.5704 85.4699C22.0386 86.1051 22.1224 87.0512 22.7576 87.583L24.6834 85.2827ZM32.6792 94.2259C33.4102 94.6156 34.3188 94.3389 34.7085 93.6079C35.0983 92.8769 34.8216 91.9683 34.0906 91.5786L32.6792 94.2259ZM41.022 94.7658C40.2514 94.462 39.3803 94.8404 39.0764 95.6111C38.7726 96.3818 39.151 97.2529 39.9217 97.5567L41.022 94.7658ZM50.975 100.807C51.792 100.944 52.5653 100.392 52.7022 99.5754C52.839 98.7583 52.2876 97.985 51.4706 97.8482L50.975 100.807ZM58.4693 98.6114C57.643 98.5533 56.9259 99.1761 56.8678 100.002C56.8097 100.829 57.4324 101.546 58.2588 101.604L58.4693 98.6114ZM68.8398 102.578C69.6563 102.718 70.4317 102.169 70.5717 101.353C70.7116 100.536 70.1631 99.7608 69.3466 99.6208L68.8398 102.578ZM76.5924 101.796C75.8424 101.444 74.9492 101.767 74.5975 102.517C74.2457 103.267 74.5686 104.16 75.3186 104.512L76.5924 101.796ZM82.9322 110.883C83.4269 111.547 84.3666 111.685 85.0311 111.19C85.6956 110.696 85.8333 109.756 85.3386 109.091L82.9322 110.883ZM89.113 115.558C88.7653 114.806 87.8738 114.479 87.1219 114.827C86.37 115.174 86.0424 116.066 86.3901 116.818L89.113 115.558ZM13.4104 0.949008C12.9771 1.67954 12.0726 3.6631 11.0065 6.50606L13.8155 7.55939C14.8762 4.73095 15.7034 2.96378 15.9906 2.47958L13.4104 0.949008ZM8.51851 13.9921C7.52537 17.3714 6.54652 21.2632 5.75724 25.4937L8.70635 26.0439C9.47475 21.9254 10.4285 18.1327 11.3968 14.8379L8.51851 13.9921ZM4.59533 33.2888C4.1741 37.0996 3.95586 41.0805 4.04434 45.1296L7.04362 45.064C6.9584 41.1642 7.16841 37.3164 7.57717 33.6184L4.59533 33.2888ZM4.62846 53.0397C5.13222 56.9435 5.97643 60.8547 7.2533 64.682L10.0991 63.7326C8.89064 60.1103 8.08577 56.3908 7.60379 52.6558L4.62846 53.0397ZM10.3383 72.0556C12.1128 75.5239 14.3236 78.8603 17.0447 81.9876L19.3079 80.0184C16.7538 77.083 14.6777 73.9507 13.009 70.6892L10.3383 72.0556ZM22.7576 87.583C25.6514 90.0057 28.9445 92.2348 32.6792 94.2259L34.0906 91.5786C30.5311 89.6809 27.4116 87.5668 24.6834 85.2827L22.7576 87.583ZM39.9217 97.5567C41.7094 98.2615 43.578 98.9201 45.5308 99.5293L46.4243 96.6655C44.5388 96.0772 42.7393 95.4428 41.022 94.7658L39.9217 97.5567ZM45.5308 99.5293C47.3594 100.1 49.1785 100.506 50.975 100.807L51.4706 97.8482C49.7824 97.5655 48.0994 97.188 46.4243 96.6655L45.5308 99.5293ZM58.2588 101.604C62.0222 101.869 65.5088 102.007 68.8398 102.578L69.3466 99.6208C65.8223 99.0168 62.1013 98.8669 58.4693 98.6114L58.2588 101.604ZM75.3186 104.512C78.0472 105.792 80.6032 107.754 82.9322 110.883L85.3386 109.091C82.7184 105.572 79.7755 103.289 76.5924 101.796L75.3186 104.512ZM86.3901 116.818C87.0678 118.283 87.718 119.902 88.3373 121.691L91.1723 120.71C90.5239 118.836 89.837 117.124 89.113 115.558L86.3901 116.818Z" fill="#E5E5E5"/>
</svg>
