<svg width="17" height="15" viewBox="0 0 17 15" fill="none" xmlns="http://www.w3.org/2000/svg">
<path d="M16.9667 0.790016C16.9529 0.727243 16.9228 0.669225 16.8794 0.621834C16.836 0.574443 16.7808 0.539362 16.7195 0.520141C16.4961 0.475906 16.265 0.492293 16.0501 0.5676C16.0501 0.5676 1.15458 5.92189 0.303874 6.51477C0.121124 6.64227 0.0594995 6.71664 0.0290411 6.80377C-0.118292 7.22877 0.339999 7.41152 0.339999 7.41152L4.17917 8.66243C4.24408 8.67408 4.31083 8.6702 4.37396 8.6511C5.24663 8.09931 13.1573 3.10202 13.617 2.93414C13.6878 2.91289 13.7424 2.93414 13.7282 2.98727C13.5455 3.62831 6.70933 9.70085 6.67179 9.73768C6.6535 9.75267 6.63926 9.77199 6.63035 9.79389C6.62144 9.81579 6.61816 9.83957 6.62079 9.86306L6.26237 13.6116C6.26237 13.6116 6.11221 14.7782 7.27883 13.6116C8.10617 12.7835 8.90021 12.0979 9.29687 11.7642C10.6172 12.6759 12.0374 13.6838 12.6501 14.2115C12.7532 14.3113 12.8753 14.3892 13.0092 14.4407C13.1431 14.4922 13.2859 14.5161 13.4293 14.5111C13.6058 14.4896 13.7716 14.4149 13.9046 14.2968C14.0376 14.1788 14.1315 14.023 14.1738 13.8503C14.1738 13.8503 16.8867 2.92564 16.9773 1.46222C16.9865 1.32056 16.9986 1.22706 17 1.1286C17.0044 1.01475 16.9932 0.900829 16.9667 0.790016Z" fill="black"/>
</svg>
