<svg width="223" height="57" viewBox="0 0 223 57" fill="none" xmlns="http://www.w3.org/2000/svg">
<path d="M5.52867 53.7972C17.2716 53.7972 17.2716 36.5633 29.1321 36.5633C40.875 36.5633 40.875 29.9823 52.7354 29.9823C64.4784 29.9823 64.4784 5.79724 76.3388 5.79724C88.0818 5.79724 88.0818 18.0954 99.9422 18.0954C111.685 18.0954 111.685 40.8821 123.428 40.8821C135.289 40.8821 135.289 6.0029 147.032 6.0029C158.892 6.0029 158.892 44.3782 170.635 44.3782C182.495 44.3782 182.495 39.8949 194.238 39.8949C206.099 39.8949 206.099 53.7972 217.842 53.7972" stroke="#7951F9" stroke-width="2"/>
<path d="M5.52867 53.7973C17.2716 53.7973 17.2716 40.9897 29.1321 40.9897C40.875 40.9897 40.875 52.2116 52.7354 52.2116C64.4784 52.2116 64.4784 48.4303 76.3388 48.4303C88.0818 48.4303 88.0818 32.9799 99.9422 32.9799C111.685 32.9799 111.685 15.1306 123.428 15.1306C135.289 15.1306 135.289 39.0787 147.032 39.0787C158.892 39.0787 158.892 30.6623 170.635 30.6623C182.495 30.6623 182.495 37.9403 194.238 37.9403C206.099 37.9403 206.099 53.7973 217.842 53.7973" stroke="#F25368" stroke-width="2"/>
<path d="M8.95185 53.7973C8.95185 54.7689 8.21813 55.464 7.42431 55.464C6.63049 55.464 5.89677 54.7689 5.89677 53.7973C5.89677 52.8256 6.63049 52.1306 7.42431 52.1306C8.21813 52.1306 8.95185 52.8256 8.95185 53.7973Z" fill="white" stroke="#1F78B4" stroke-width="2"/>
<circle cx="30.7765" cy="36.2972" r="1.5" fill="white" stroke="#7951F9" stroke-width="2"/>
<circle cx="54.7881" cy="29.6306" r="1.5" fill="white" stroke="#7951F9" stroke-width="2"/>
<circle cx="78.1678" cy="5.63062" r="1.5" fill="white" stroke="#7951F9" stroke-width="2"/>
<circle cx="102.179" cy="17.6306" r="1.5" fill="white" stroke="#7951F9" stroke-width="2"/>
<path d="M127.114 40.4639C127.114 41.4355 126.38 42.1306 125.587 42.1306C124.793 42.1306 124.059 41.4355 124.059 40.4639C124.059 39.4923 124.793 38.7972 125.587 38.7972C126.38 38.7972 127.114 39.4923 127.114 40.4639Z" fill="white" stroke="#7951F9" stroke-width="2"/>
<circle cx="148.939" cy="5.63062" r="1.5" fill="white" stroke="#7951F9" stroke-width="2"/>
<circle cx="172.95" cy="43.6306" r="1.5" fill="white" stroke="#7951F9" stroke-width="2"/>
<path d="M197.885 39.7973C197.885 40.7689 197.151 41.4639 196.358 41.4639C195.564 41.4639 194.83 40.7689 194.83 39.7973C194.83 38.8256 195.564 38.1306 196.358 38.1306C197.151 38.1306 197.885 38.8256 197.885 39.7973Z" fill="white" stroke="#7951F9" stroke-width="2"/>
<path d="M221.897 53.7973C221.897 54.7689 221.163 55.464 220.369 55.464C219.575 55.464 218.842 54.7689 218.842 53.7973C218.842 52.8256 219.575 52.1306 220.369 52.1306C221.163 52.1306 221.897 52.8256 221.897 53.7973Z" fill="white" stroke="#7951F9" stroke-width="2"/>
<circle cx="7.39677" cy="53.6306" r="1.5" fill="white" stroke="#F25368" stroke-width="2"/>
<circle cx="30.7765" cy="40.2972" r="1.5" fill="white" stroke="#F25368" stroke-width="2"/>
<circle cx="54.7881" cy="51.6306" r="1.5" fill="white" stroke="#F25368" stroke-width="2"/>
<circle cx="78.1678" cy="47.6306" r="1.5" fill="white" stroke="#F25368" stroke-width="2"/>
<circle cx="102.179" cy="32.2972" r="1.5" fill="white" stroke="#F25368" stroke-width="2"/>
<circle cx="125.559" cy="14.2972" r="1.5" fill="white" stroke="#F25368" stroke-width="2"/>
<circle cx="148.939" cy="38.2972" r="1.5" fill="white" stroke="#F25368" stroke-width="2"/>
<circle cx="172.95" cy="30.2972" r="1.5" fill="white" stroke="#F25368" stroke-width="2"/>
<circle cx="196.33" cy="37.6306" r="1.5" fill="white" stroke="#F25368" stroke-width="2"/>
<circle cx="220.342" cy="53.6306" r="1.5" fill="white" stroke="#F25368" stroke-width="2"/>
<g filter="url(#filter0_d_2_348)">
<path d="M10.8968 8.88257C10.8968 6.67343 12.6876 4.88257 14.8968 4.88257H46.8968C49.1059 4.88257 50.8968 6.67343 50.8968 8.88257V22.4826C50.8968 24.6917 49.1059 26.4826 46.8968 26.4826H36.6111L30.8968 31.8826L25.1825 26.4826H14.8968C12.6876 26.4826 10.8968 24.6917 10.8968 22.4826V8.88257Z" fill="#F7F4FD"/>
<path d="M25.5259 26.1192L25.3814 25.9826H25.1825H14.8968C12.9638 25.9826 11.3968 24.4156 11.3968 22.4826V8.88257C11.3968 6.94958 12.9638 5.38257 14.8968 5.38257H46.8968C48.8298 5.38257 50.3968 6.94957 50.3968 8.88257V22.4826C50.3968 24.4156 48.8298 25.9826 46.8968 25.9826H36.6111H36.4122L36.2676 26.1192L30.8968 31.1946L25.5259 26.1192Z" stroke="#E8E0FF"/>
</g>
<path d="M26.2308 17.4216C26.2308 17.7549 26.1474 18.0683 25.9808 18.3616C25.8208 18.6549 25.5808 18.9016 25.2608 19.1016C24.9474 19.3016 24.5741 19.4216 24.1408 19.4616V20.2716H23.4908V19.4616C22.8641 19.4016 22.3574 19.2049 21.9708 18.8716C21.5841 18.5383 21.3908 18.0983 21.3908 17.5516H22.6108C22.6308 17.8116 22.7141 18.0283 22.8608 18.2016C23.0074 18.3683 23.2174 18.4749 23.4908 18.5216V16.3216C23.0441 16.2083 22.6808 16.0949 22.4008 15.9816C22.1208 15.8616 21.8808 15.6749 21.6808 15.4216C21.4874 15.1683 21.3908 14.8216 21.3908 14.3816C21.3908 13.8283 21.5841 13.3716 21.9708 13.0116C22.3574 12.6449 22.8641 12.4316 23.4908 12.3716V11.5616H24.1408V12.3716C24.7274 12.4249 25.1974 12.6116 25.5508 12.9316C25.9108 13.2449 26.1141 13.6783 26.1608 14.2316H24.9408C24.9208 14.0249 24.8408 13.8416 24.7008 13.6816C24.5608 13.5149 24.3741 13.4016 24.1408 13.3416V15.5016C24.5874 15.6083 24.9508 15.7216 25.2308 15.8416C25.5108 15.9549 25.7474 16.1383 25.9408 16.3916C26.1341 16.6383 26.2308 16.9816 26.2308 17.4216ZM22.5508 14.3216C22.5508 14.5949 22.6308 14.8083 22.7908 14.9616C22.9574 15.1149 23.1908 15.2383 23.4908 15.3316V13.3116C23.2041 13.3449 22.9741 13.4483 22.8008 13.6216C22.6341 13.7949 22.5508 14.0283 22.5508 14.3216ZM24.1408 18.5216C24.4341 18.4749 24.6641 18.3583 24.8308 18.1716C24.9974 17.9783 25.0808 17.7483 25.0808 17.4816C25.0808 17.2149 24.9974 17.0083 24.8308 16.8616C24.6708 16.7083 24.4408 16.5849 24.1408 16.4916V18.5216ZM28.9247 17.8516C29.5647 17.2983 30.068 16.8449 30.4347 16.4916C30.808 16.1316 31.118 15.7583 31.3647 15.3716C31.6113 14.9849 31.7347 14.5983 31.7347 14.2116C31.7347 13.8116 31.638 13.4983 31.4447 13.2716C31.258 13.0449 30.9613 12.9316 30.5547 12.9316C30.1613 12.9316 29.8547 13.0583 29.6347 13.3116C29.4213 13.5583 29.308 13.8916 29.2947 14.3116H28.1947C28.2147 13.5516 28.4413 12.9716 28.8747 12.5716C29.3147 12.1649 29.8713 11.9616 30.5447 11.9616C31.2713 11.9616 31.838 12.1616 32.2447 12.5616C32.658 12.9616 32.8647 13.4949 32.8647 14.1616C32.8647 14.6416 32.7413 15.1049 32.4947 15.5516C32.2547 15.9916 31.9647 16.3883 31.6247 16.7416C31.2913 17.0883 30.8647 17.4916 30.3447 17.9516L29.8947 18.3516H33.0647V19.3016H28.2047V18.4716L28.9247 17.8516ZM39.1662 13.0916H35.8162V15.0816C35.9562 14.8949 36.1628 14.7383 36.4362 14.6116C36.7162 14.4849 37.0128 14.4216 37.3262 14.4216C37.8862 14.4216 38.3395 14.5416 38.6862 14.7816C39.0395 15.0216 39.2895 15.3249 39.4362 15.6916C39.5895 16.0583 39.6662 16.4449 39.6662 16.8516C39.6662 17.3449 39.5695 17.7849 39.3762 18.1716C39.1895 18.5516 38.9062 18.8516 38.5262 19.0716C38.1528 19.2916 37.6928 19.4016 37.1462 19.4016C36.4195 19.4016 35.8362 19.2216 35.3962 18.8616C34.9562 18.5016 34.6928 18.0249 34.6062 17.4316H35.7162C35.7895 17.7449 35.9528 17.9949 36.2062 18.1816C36.4595 18.3616 36.7762 18.4516 37.1562 18.4516C37.6295 18.4516 37.9828 18.3083 38.2162 18.0216C38.4562 17.7349 38.5762 17.3549 38.5762 16.8816C38.5762 16.4016 38.4562 16.0349 38.2162 15.7816C37.9762 15.5216 37.6228 15.3916 37.1562 15.3916C36.8295 15.3916 36.5528 15.4749 36.3262 15.6416C36.1062 15.8016 35.9462 16.0216 35.8462 16.3016H34.7662V12.0916H39.1662V13.0916Z" fill="#232D42"/>
<defs>
<filter id="filter0_d_2_348" x="0.896774" y="0.882568" width="60" height="47" filterUnits="userSpaceOnUse" color-interpolation-filters="sRGB">
<feFlood flood-opacity="0" result="BackgroundImageFix"/>
<feColorMatrix in="SourceAlpha" type="matrix" values="0 0 0 0 0 0 0 0 0 0 0 0 0 0 0 0 0 0 127 0" result="hardAlpha"/>
<feOffset dy="6"/>
<feGaussianBlur stdDeviation="5"/>
<feColorMatrix type="matrix" values="0 0 0 0 0.863571 0 0 0 0 0.82875 0 0 0 0 0.975 0 0 0 0.4 0"/>
<feBlend mode="normal" in2="BackgroundImageFix" result="effect1_dropShadow_2_348"/>
<feBlend mode="normal" in="SourceGraphic" in2="effect1_dropShadow_2_348" result="shape"/>
</filter>
</defs>
</svg>
