<svg width="20" height="20" viewBox="0 0 20 20" fill="none" xmlns="http://www.w3.org/2000/svg">
<path fill-rule="evenodd" clip-rule="evenodd" d="M0.606061 0.606061C0.0278788 1.18424 0 1.61606 0 10C0 18.3839 0.0278788 18.8158 0.606061 19.3939C1.18424 19.9721 1.61606 20 10 20C18.3839 20 18.8158 19.9721 19.3939 19.3939C19.9679 18.82 20 18.3839 20 11.1452V3.50242L18.267 1.75121C16.8645 0.333939 16.3467 0 15.5503 0H14.5667L14.4803 3.10606L14.3939 6.21212H9.54545H4.69697L4.61061 3.10606L4.52424 0H2.86818C1.61606 0 1.06424 0.147879 0.606061 0.606061ZM10.9091 2.27273V4.54545H11.8182H12.7273V2.27273V0H11.8182H10.9091V2.27273ZM15.7576 11.5152C16.2827 12.0403 16.3636 12.5252 16.3636 15.1515V18.1818H10H3.63636V15.1515C3.63636 10.7964 3.46697 10.9091 10 10.9091C14.7476 10.9091 15.1991 10.9567 15.7576 11.5152Z" fill="white"/>
</svg>
